<svg width="34" height="35" xmlns="http://www.w3.org/2000/svg" xmlns:xlink="http://www.w3.org/1999/xlink" xml:space="preserve" overflow="hidden"><g transform="translate(-154 -265)"><path d="M31.28 17.3238C31.28 16.1257 31.1826 15.2514 30.9723 14.3447L17.2914 14.3447 17.2914 19.7523 25.3217 19.7523C25.16 21.0962 24.2857 23.12 22.3428 24.48L22.3156 24.6609 26.6412 28.0119 26.9409 28.0417C29.6932 25.5 31.28 21.7599 31.28 17.3238" fill="#4285F4" transform="matrix(1 0 0 1.02941 154 265)"/><path d="M17.2914 31.5714C21.2257 31.5714 24.5286 30.276 26.9409 28.042L22.3428 24.48C21.1124 25.338 19.4609 25.9371 17.2914 25.9371 13.4381 25.9371 10.1677 23.3952 9.00184 19.8819L8.83097 19.8964 4.33308 23.3773 4.27426 23.5409C6.67044 28.3009 11.5923 31.5714 17.2914 31.5714" fill="#34A853" transform="matrix(1 0 0 1.02941 154 265)"/><path d="M9.00184 19.8819C8.69424 18.9752 8.5162 18.0037 8.5162 17 8.5162 15.9961 8.69421 15.0247 8.98567 14.118L8.97751 13.9249 4.42325 10.3881 4.27426 10.459C3.28668 12.4342 2.72 14.6523 2.72 17 2.72 19.3476 3.28668 21.5656 4.27426 23.5409L9.00184 19.8819" fill="#FBBC05" transform="matrix(1 0 0 1.02941 154 265)"/><path d="M17.2914 8.06278C20.0276 8.06278 21.8732 9.24467 22.9257 10.2324L27.038 6.21709C24.5123 3.86949 21.2257 2.42853 17.2914 2.42853 11.5923 2.42853 6.67041 5.69898 4.27424 10.4589L8.98567 14.118C10.1677 10.6047 13.4381 8.06278 17.2914 8.06278" fill="#EB4335" transform="matrix(1 0 0 1.02941 154 265)"/></g></svg>